<!DOCTYPE svg PUBLIC "-//W3C//DTD SVG 20010904//EN" "http://www.w3.org/TR/2001/REC-SVG-20010904/DTD/svg10.dtd">
<svg version="1.0" xmlns="http://www.w3.org/2000/svg" width="578px" height="462px" viewBox="0 0 5780 4620" preserveAspectRatio="xMidYMid meet">
<g id="layer1" fill="#000000" stroke="none">
 <path d="M2447 4424 l-97 -26 -65 -72 c-44 -50 -77 -100 -104 -159 l-40 -87 -16 -256 c-8 -141 -15 -359 -15 -485 l0 -229 -77 -39 c-43 -21 -91 -53 -107 -69 l-28 -31 11 -68 c11 -59 18 -74 54 -111 26 -27 79 -62 138 -92 99 -50 109 -61 109 -122 0 -31 17 -29 -409 -54 -147 -8 -352 -28 -465 -44 l-201 -28 -235 234 c-181 179 -244 237 -276 248 -27 9 -111 16 -245 21 l-205 8 -37 -54 c-35 -51 -37 -59 -37 -128 l0 -74 101 -155 101 -156 -61 -55 c-33 -31 -74 -80 -92 -109 -27 -46 -30 -59 -25 -97 6 -36 19 -57 71 -113 l65 -70 -20 -471 -20 -472 26 -44 c14 -25 28 -45 31 -45 3 0 97 -12 209 -26 197 -25 206 -25 281 -9 43 8 83 21 89 28 6 7 74 95 150 197 108 144 157 219 219 340 66 127 84 155 100 153 11 -2 202 -32 425 -67 285 -45 481 -71 660 -86 140 -11 257 -24 261 -28 3 -4 20 -26 37 -49 l32 -41 -25 -48 c-26 -49 -29 -70 -19 -122 9 -46 104 -103 249 -152 l117 -39 117 -109 c64 -60 179 -156 256 -214 77 -58 184 -145 239 -192 54 -48 108 -93 120 -101 12 -8 104 -23 216 -36 210 -24 283 -19 331 20 21 16 21 20 10 103 -6 47 -32 178 -56 291 -25 113 -45 213 -45 221 0 9 25 32 55 52 l55 37 0 55 c0 71 -18 181 -35 207 -7 11 -36 31 -64 44 -28 14 -51 28 -51 32 0 9 88 16 378 29 264 12 278 16 377 103 60 53 56 63 -38 97 -34 12 -92 38 -130 57 l-68 34 18 24 c18 24 94 60 124 58 9 -1 40 -9 71 -17 45 -14 57 -22 71 -50 14 -31 21 -35 70 -41 29 -4 95 -2 146 4 80 10 107 19 200 66 l108 54 32 86 c18 47 30 93 27 102 -4 9 -39 67 -78 130 l-71 114 -116 59 c-102 51 -138 63 -281 94 -91 20 -277 49 -415 66 -137 17 -339 44 -448 60 -134 20 -235 30 -315 30 -125 0 -142 6 -142 47 0 16 6 23 18 23 12 0 42 34 85 98 61 89 68 105 88 199 l22 102 -27 75 c-26 69 -34 81 -95 131 -111 93 -129 103 -225 119 -50 9 -95 21 -102 28 -11 12 -176 293 -374 638 -112 194 -221 334 -308 393 -67 46 -68 47 -167 52 -86 4 -114 1 -198 -21z"/>
 </g>

</svg>